PathFileType  4	(X/Y/Z) C:\Users\antoi\Documents\MyRepositories\mobilecap\ResultsAnalysis
DataRate	CameraRate	NumFrames	NumMarkers	Units	OrigDataRate	OrigDataStartFrame	OrigNumFrames
100.0	100.0	4	51	mm	100.0	698	1394
Frame#	Time	r_knee			r_shank_antsup			r_ankle			r_calc			r_5meta			r_toe			L_knee			L_shank_antsup			L_ankle			L_calc			L_5meta			L_toe			r_sh2			r_sh3			r_sh4			L_sh2			L_sh3			r_thigh1			r_thigh2			r_thigh3			r_thigh4			r_thigh5			L_thigh1			L_thigh2			L_thigh3			L_thigh4			r.ASIS			r.PSIS			L.ASIS			L.PSIS			C7			R_Shoulder			L_Shoulder			R_Sternum			L_Sternum			R_humerus			R_elbow_med			R_elbow_lat			R_forearm			R_wrist_radius			R_wrist_ulna			L_humerus			L_elbow_med			L_elbow_lat			L_forearm			L_wrist_radius			L_wrist_ulna			R_HJC			L_HJC			R_HJC_reg			L_HJC_reg			
		X1	Y1	Z1	X2	Y2	Z2	X3	Y3	Z3	X4	Y4	Z4	X5	Y5	Z5	X6	Y6	Z6	X7	Y7	Z7	X8	Y8	Z8	X9	Y9	Z9	X10	Y10	Z10	X11	Y11	Z11	X12	Y12	Z12	X13	Y13	Z13	X14	Y14	Z14	X15	Y15	Z15	X16	Y16	Z16	X17	Y17	Z17	X18	Y18	Z18	X19	Y19	Z19	X20	Y20	Z20	X21	Y21	Z21	X22	Y22	Z22	X23	Y23	Z23	X24	Y24	Z24	X25	Y25	Z25	X26	Y26	Z26	X27	Y27	Z27	X28	Y28	Z28	X29	Y29	Z29	X30	Y30	Z30	X31	Y31	Z31	X32	Y32	Z32	X33	Y33	Z33	X34	Y34	Z34	X35	Y35	Z35	X36	Y36	Z36	X37	Y37	Z37	X38	Y38	Z38	X39	Y39	Z39	X40	Y40	Z40	X41	Y41	Z41	X42	Y42	Z42	X43	Y43	Z43	X44	Y44	Z44	X45	Y45	Z45	X46	Y46	Z46	X47	Y47	Z47	X48	Y48	Z48	X49	Y49	Z49	X50	Y50	Z50	X51	Y51	Z51	

698	6.97000000	-154.52635	477.09486	-406.79815	-119.69172	406.33273	-430.39568	-259.17580	93.20837	-460.97264	-332.25285	63.29889	-497.53930	-159.79988	43.73839	-427.33331	-112.24750	67.98617	-484.54790	-209.81468	495.97250	-794.31161	-173.07321	411.29029	-829.78013	-260.16913	104.21174	-864.26933	-322.34874	59.58202	-825.42017	-151.82192	53.77825	-913.96933	-111.10119	82.59311	-862.90976	-162.21301	298.75681	-417.48114	-189.88324	428.90408	-395.47403	-229.93451	324.74372	-399.61127	-259.07742	428.22721	-810.66375	-277.60262	310.87985	-843.47413	-198.27158	795.59453	-357.71609	-165.50036	689.43736	-367.61559	-209.65821	648.00485	-339.21159	-304.25023	759.92543	-336.47796	-265.24900	649.51625	-348.19243	-295.43755	749.57335	-759.04451	-233.81046	629.90764	-783.75902	-374.99997	696.35262	-693.79857	-312.68076	576.88583	-733.69162	-203.92175	920.87114	-415.78360	-384.72534	999.95934	-469.88091	-243.15446	895.14116	-663.61710	-405.21652	996.62612	-565.58183	-265.11290	1379.17488	-550.92056	-161.81906	1362.17003	-392.23132	-180.47969	1356.96585	-719.42019	-126.96991	1325.14315	-529.76917	-124.45029	1327.44839	-567.40547	-132.10957	1260.28074	-301.94200	-122.22156	1038.14620	-283.38228	-86.70395	1082.77072	-223.57594	-5.55257	1143.03729	-317.57231	58.99382	1194.57136	-413.29724	84.46433	1170.71663	-416.26539	-148.65468	1268.47268	-803.37411	-113.12562	1031.80223	-823.23470	-96.91983	1086.39317	-886.39234	-23.91057	1136.41972	-823.37949	85.30568	1188.61393	-739.34221	108.68388	1167.46397	-752.43970	-297.57372	860.72480	-419.32010	-332.48315	846.04272	-622.28803	-291.51813	858.78194	-430.78725	-326.35267	853.11559	-593.47866	
699	6.98000000	-155.97262	477.54355	-406.80331	-120.81868	407.21627	-430.02249	-259.16190	93.18658	-460.81589	-332.27624	63.31685	-497.57461	-159.79155	43.68224	-427.31019	-112.24078	67.96042	-484.52595	-210.91780	496.29409	-793.19999	-174.43645	411.66782	-828.89632	-260.33778	104.25549	-864.20101	-322.62272	59.60210	-825.49494	-152.00535	53.81108	-913.69819	-111.19618	82.80155	-862.84207	-163.25537	299.41029	-417.06725	-190.85706	429.70001	-395.18855	-231.31587	325.59766	-398.97418	-260.52663	428.18136	-809.80516	-278.56228	310.90598	-843.01570	-195.51867	796.35610	-357.49531	-164.19101	689.88138	-367.37126	-208.93450	649.00964	-338.96926	-302.10432	762.25865	-335.97777	-264.42359	651.22437	-347.82163	-293.77724	751.70035	-760.35198	-233.24446	630.41635	-782.95726	-373.59755	698.74609	-693.12714	-312.86987	578.54741	-732.97501	-201.00675	923.51197	-414.99629	-382.32245	1001.78500	-469.02073	-240.14630	897.70221	-662.89656	-402.84431	998.40549	-564.87702	-265.80281	1382.11015	-549.37141	-162.25809	1365.42257	-390.82899	-181.74232	1360.23276	-718.46921	-127.36116	1328.73042	-528.26537	-124.88760	1331.01607	-566.24364	-132.56712	1263.25468	-300.83434	-123.33021	1041.04439	-282.45355	-87.53921	1085.35777	-222.66411	-6.23627	1145.65260	-316.48206	58.25301	1197.04278	-412.34454	83.54747	1173.11460	-415.38273	-150.62881	1271.56096	-802.53802	-116.37659	1034.70785	-822.39083	-100.46950	1089.04866	-885.63923	-26.72026	1138.79485	-823.12685	83.37164	1190.41993	-739.88796	106.58300	1169.20031	-753.20439	-294.44275	862.93712	-418.59267	-329.27600	848.17203	-621.56766	-288.32681	860.97467	-430.02773	-323.16502	855.23772	-592.75588	
700	6.99000000	-157.22413	478.06524	-406.63570	-121.85366	408.02173	-429.82128	-259.21744	93.13221	-460.77775	-332.26787	63.33824	-497.56328	-159.78279	43.64977	-427.29256	-112.22579	67.92275	-484.51073	-212.28015	496.43262	-791.99085	-175.73863	412.07692	-828.09808	-260.49928	104.36085	-864.26337	-322.74663	59.58764	-825.52653	-152.21203	53.82073	-913.47791	-111.27946	82.92709	-862.84020	-164.08104	299.91741	-416.84414	-192.17268	430.33957	-395.12938	-232.40255	326.12576	-398.76776	-262.02125	428.11939	-808.92006	-279.42698	310.97141	-842.78222	-193.12951	797.43065	-357.21025	-162.78614	690.53937	-367.27767	-208.05690	650.17892	-338.64255	-299.97021	764.41203	-335.42625	-263.53335	652.86470	-347.47322	-292.80378	753.89250	-762.89558	-232.77758	630.83064	-782.16192	-372.15940	701.24286	-692.77924	-313.13879	580.26600	-732.40376	-198.22675	926.07148	-414.26940	-380.01234	1003.49884	-468.22648	-237.22348	900.18860	-662.40972	-400.48661	1000.08073	-564.40198	-266.43628	1384.94871	-547.96945	-162.61392	1368.50950	-389.36168	-182.99873	1363.30289	-717.37448	-127.59645	1331.98625	-527.04751	-125.15597	1334.58622	-565.30657	-132.92720	1266.02494	-299.57736	-124.24562	1043.75306	-281.44392	-88.24654	1087.78019	-221.73400	-6.69075	1148.17379	-315.46880	57.51117	1199.38605	-411.38262	82.68287	1175.33801	-414.55220	-152.55590	1274.43722	-801.60283	-118.85999	1037.58814	-821.69162	-103.94837	1091.42593	-884.87870	-29.48886	1140.89864	-822.76754	81.49037	1192.08277	-740.55361	104.54498	1170.82454	-754.22268	-291.42152	865.03894	-418.02632	-326.12873	850.22842	-621.01962	-285.34490	862.99783	-429.44518	-320.02594	857.20811	-592.35430	
701	7.00000000	-158.13536	478.70646	-406.21811	-122.84911	408.66705	-429.60763	-259.31045	93.11654	-460.83885	-332.30064	63.35811	-497.59613	-159.78396	43.64180	-427.26368	-112.20319	67.86931	-484.50639	-213.68714	496.53550	-790.92105	-177.08662	412.49310	-827.18691	-260.63841	104.50381	-864.42072	-321.72920	59.29475	-825.24961	-152.35536	53.85122	-913.51956	-111.35505	82.94852	-862.94656	-164.64712	300.26446	-416.84665	-193.34507	430.87369	-394.89575	-232.99230	325.96731	-399.21945	-263.43265	428.10436	-807.98706	-280.31984	311.10735	-842.30603	-190.84082	798.46203	-357.06866	-161.36174	691.35661	-367.16980	-207.03159	651.40822	-338.28521	-297.83183	766.35785	-334.96890	-262.54998	654.53919	-347.16543	-291.40468	755.40384	-763.69056	-232.36814	631.13162	-781.37332	-370.69215	703.83032	-692.57249	-313.48984	581.93142	-731.83725	-195.57130	928.45613	-413.69971	-377.79323	1005.03594	-467.62048	-234.37385	902.57049	-661.97967	-398.22046	1001.60295	-564.03266	-267.01573	1387.60485	-546.63620	-162.98743	1371.44058	-387.94269	-184.19926	1366.26285	-716.16547	-127.75100	1335.01078	-526.77128	-125.05129	1338.58534	-564.39190	-133.20533	1268.57085	-298.34165	-125.09514	1046.31868	-280.49883	-88.98637	1090.15178	-220.76591	-7.14991	1150.44842	-314.58107	56.86476	1201.60595	-410.39269	81.89126	1177.40679	-413.76031	-154.41831	1277.11783	-800.62666	-121.05057	1040.16423	-821.00929	-107.27830	1093.70432	-884.24086	-31.99421	1142.85229	-822.71806	79.64245	1193.62953	-741.10906	102.51349	1172.24898	-755.04935	-288.51200	866.97070	-417.60153	-323.05289	852.15162	-620.62257	-282.43454	864.89377	-429.00925	-316.97245	859.08928	-592.02102	
